<mxfile host="app.diagrams.net" modified="2023-11-27T12:01:16.091Z" agent="Mozilla/5.0 (Macintosh; Intel Mac OS X 10_15_7) AppleWebKit/537.36 (KHTML, like Gecko) Chrome/119.0.0.0 Safari/537.36" version="22.1.4" etag="eT9fPrwlN6e8I2R5RGJ7" type="github">
  <diagram name="Page-1" id="vOInXQ4Lw5x9-GMP6B-J">
    <mxGraphModel>
      <root>
        <mxCell id="0" />
        <mxCell id="1" parent="0" />
      </root>
    </mxGraphModel>
  </diagram>
</mxfile>
